# xmcd
#
# Track frame offsets: 
#        150
#        12413
#        23861
#        39965
#        51610
#        65358
#        78709
#        93881
#        109735
#        124537
#        136444
#        151967
#        163337
#        177960
#        190460
#        204806
#        218935
#        233773
#        245430
#        258543
#        273355
#        288939
#        303680
#
# Disc length: 4227 seconds
#
# Revision: 0
# Processed by: cddbd v1.5.1PL2 Copyright (c) Steve Scherf et al.
# Submitted via: ExactAudioCopy v0.95a5
#
DISCID=4c108117
DTITLE=Eddie Boyd - Five Long Years - Complete Recordings Vol. 2 (1951
DTITLE=1953)
DYEAR=2004
DGENRE=Blues
TTITLE0=Five Long Years
TTITLE1=Blue Coat Man
TTITLE2=Hard Headed Woman
TTITLE3=Blue Coat Man
TTITLE4=Picture In The Frame
TTITLE5=I Got The Blues
TTITLE6=Got Lonesome Here
TTITLE7=Began To Sang The Blues
TTITLE8=It's Miserable To Be Alone
TTITLE9=I'm Pleading
TTITLE10=24 Hours
TTITLE11=Hard Time Getting Started
TTITLE12=Best I Could
TTITLE13=The Tickler
TTITLE14=Blues For Baby
TTITLE15=Cool Kind Treatment
TTITLE16=Back Beat
TTITLE17=Rosalee Swing
TTITLE18=That's When I Miss You So
TTITLE19=Third Degree
TTITLE20=Four Leaf Clover
TTITLE21=Back Beat
TTITLE22=The Tickler
EXTD=
EXTT0=
EXTT1=
EXTT2=
EXTT3=
EXTT4=
EXTT5=
EXTT6=
EXTT7=
EXTT8=
EXTT9=
EXTT10=
EXTT11=
EXTT12=
EXTT13=
EXTT14=
EXTT15=
EXTT16=
EXTT17=
EXTT18=
EXTT19=
EXTT20=
EXTT21=
EXTT22=
PLAYORDER=
